<?xml version="1.0" encoding="utf-8"?>
<!-- Generator: Adobe Illustrator 16.0.0, SVG Export Plug-In . SVG Version: 6.00 Build 0)  -->
<!DOCTYPE svg PUBLIC "-//W3C//DTD SVG 1.1//EN" "http://www.w3.org/Graphics/SVG/1.1/DTD/svg11.dtd">
<svg version="1.1" id="Capa_1" xmlns="http://www.w3.org/2000/svg" xmlns:xlink="http://www.w3.org/1999/xlink" x="0px" y="0px"
	 width="55px" height="54.993px" viewBox="483.411 175.588 55 54.993" enable-background="new 483.411 175.588 55 54.993"
	 xml:space="preserve">
<g>
	<circle fill="#FFFFFF" cx="508.507" cy="203.54" r="21.481"/>
	<g>
		<path fill="#ED6C0C" d="M508.507,203.426l-1.604,6.641c2.062,0.457,8.357,2.52,9.273-1.26
			C517.094,204.914,510.568,203.998,508.507,203.426z"/>
		<path fill="#E05A00" d="M516.178,208.921c1.031-3.894-5.608-4.923-7.671-5.381l-1.604,6.525"/>
		<path fill="#ED6C0C" d="M510.797,194.379l-1.488,6.068c1.718,0.458,6.984,2.177,7.785-1.26
			C517.896,195.639,512.514,194.837,510.797,194.379z"/>
		<path fill="#E05A00" d="M517.094,199.188c0.916-3.55-4.58-4.352-6.297-4.81l-1.488,6.068"/>
		<path fill="#FFB600" d="M517.553,176.403c-14.771-3.664-29.656,5.383-33.319,20.037c-3.664,14.771,5.268,29.656,20.036,33.319
			c14.771,3.664,29.656-5.267,33.32-20.037C541.254,195.066,532.322,180.182,517.553,176.403z M523.049,199.188
			c-0.344,2.634-1.832,4.007-3.895,4.466c2.748,1.374,4.123,3.55,2.748,7.327c-1.603,4.694-5.495,5.038-10.648,4.122l-1.259,5.038
			l-2.979-0.916l1.261-4.924c-0.802-0.229-1.604-0.458-2.404-0.572l-1.26,4.924l-2.978-0.802l1.261-5.038
			c-0.688-0.229-1.375-0.343-2.177-0.572l-3.893-1.029l1.488-3.436l2.176,0.572c0.801,0.229,1.26-0.344,1.373-0.688l1.946-7.9
			c0.114,0,0.229,0,0.345,0.114c-0.115,0-0.229-0.114-0.345-0.114l1.373-5.61c0-0.688-0.229-1.487-1.373-1.718l-2.176-0.572
			l0.803-3.206l4.121,1.03l0,0c0.572,0.114,1.26,0.344,1.946,0.458l1.259-4.923l2.979,0.802l-1.26,4.81
			c0.802,0.229,1.604,0.343,2.404,0.571l1.146-4.809l2.977,0.801l-1.26,4.924C520.758,193.577,523.621,195.524,523.049,199.188z"/>
		<path fill="#F6921E" d="M484.232,196.44c-3.664,14.771,5.268,29.656,20.036,33.319c14.771,3.664,29.656-5.267,33.32-20.037
			s-5.268-29.655-20.037-33.319 M523.049,199.188c-0.344,2.634-1.832,4.007-3.895,4.466c2.748,1.374,4.123,3.55,2.748,7.327
			c-1.603,4.694-5.495,5.038-10.648,4.122l-1.259,5.038l-2.979-0.916l1.261-4.924c-0.802-0.229-1.604-0.458-2.404-0.572l-1.26,4.924
			l-2.978-0.802l1.261-5.038c-0.688-0.229-1.375-0.343-2.177-0.572l-3.893-1.029l1.488-3.436l2.176,0.572
			c0.801,0.229,1.26-0.344,1.373-0.688l1.946-7.9c0.114,0,0.229,0,0.345,0.114c-0.115,0-0.229-0.114-0.345-0.114l1.373-5.61
			c0-0.688-0.229-1.487-1.373-1.718l-2.176-0.572l0.803-3.206l4.121,1.03l0,0c0.572,0.114,1.26,0.344,1.946,0.458l1.259-4.923
			l2.979,0.802l-1.26,4.81c0.802,0.229,1.604,0.343,2.404,0.571l1.146-4.809l2.977,0.801l-1.26,4.924
			C520.758,193.577,523.621,195.524,523.049,199.188z"/>
		<path fill="#D85107" d="M537.36,210.753l-14.886-14.885c0.573,0.916,0.916,2.061,0.688,3.435
			c-0.344,2.634-1.832,4.008-3.894,4.466c2.748,1.374,4.122,3.55,2.748,7.328c-1.604,4.694-5.495,5.037-10.647,4.121l-1.26,5.039
			l-3.093-1.031l1.261-4.924c-0.802-0.229-1.604-0.458-2.404-0.572l-1.26,4.924l-0.688-0.229l11.679,11.68
			C525.682,228.386,534.383,221.058,537.36,210.753z"/>
		<g>
			<path fill="#E26600" d="M496.828,211.325L496.828,211.325l5.152,5.151l0.916-3.664c-0.688-0.229-1.375-0.343-2.177-0.572
				L496.828,211.325z"/>
			<path fill="#E26600" d="M517.438,190.83L517.438,190.83l-0.457,1.487c1.373,0.458,2.634,1.03,3.663,1.718L517.438,190.83z"/>
		</g>
		<g>
			<path fill="#ED6C0C" d="M512.857,186.021L512.857,186.021l-1.261,4.81c0.803,0.229,1.604,0.343,2.405,0.571l0.802-3.435
				L512.857,186.021z"/>
			<path fill="#ED6C0C" d="M518.238,187.28L518.238,187.28l-1.26,4.925l0.114,0.113c3.437,1.146,6.068,2.978,6.068,6.068
				l13.74,13.74c0.229-0.803,0.458-1.604,0.688-2.29c0.229-0.916,0.344-1.718,0.458-2.634L518.238,187.28z"/>
			<path fill="#ED6C0C" d="M520.873,228.729l-10.42-10.42l-0.458,1.718l-2.979-0.802l0.916-3.55l-2.061-2.062l0,0l-1.26,4.924
				l-2.978-0.802v-0.114l-0.114,0.114l12.48,12.48C516.407,230.104,518.697,229.531,520.873,228.729z"/>
		</g>
		<path fill="#E05A00" d="M523.734,227.355l-12.365-12.366c0,0,0,0-0.115,0l-1.259,5.038l-2.862-0.688l10.42,10.42
			C519.729,229.188,521.789,228.386,523.734,227.355z"/>
	</g>
</g>
</svg>
