<?xml version="1.0" encoding="utf-8"?>
<!-- Generator: Adobe Illustrator 16.0.0, SVG Export Plug-In . SVG Version: 6.00 Build 0)  -->
<!DOCTYPE svg PUBLIC "-//W3C//DTD SVG 1.1//EN" "http://www.w3.org/Graphics/SVG/1.1/DTD/svg11.dtd">
<svg version="1.1" id="Capa_1" xmlns="http://www.w3.org/2000/svg" xmlns:xlink="http://www.w3.org/1999/xlink" x="0px" y="0px"
	 width="31.512px" height="38.048px" viewBox="0 0 31.512 38.048" enable-background="new 0 0 31.512 38.048" xml:space="preserve">
<g>
	<g>
		<g>
			<path fill="#FFFFFF" d="M25.483,16.642c0-0.82-0.665-1.486-1.485-1.486H13.452c-0.82,0-1.486,0.666-1.486,1.486
				c0,0.821,0.666,1.488,1.486,1.488h10.546C24.818,18.13,25.483,17.463,25.483,16.642z"/>
		</g>
	</g>
	<g>
		<g>
			<path fill="#FFFFFF" d="M25.483,22.589c0-0.821-0.665-1.487-1.485-1.487H13.452c-0.82,0-1.486,0.667-1.486,1.487
				c0,0.819,0.666,1.486,1.486,1.486h10.546C24.818,24.076,25.483,23.409,25.483,22.589z"/>
		</g>
	</g>
	<g>
		<g>
			<path fill="#FFFFFF" d="M19.472,28.533c0-0.82-0.664-1.485-1.486-1.485h-4.534c-0.82,0-1.486,0.665-1.486,1.485
				c0,0.821,0.666,1.488,1.486,1.488h4.534C18.808,30.021,19.472,29.354,19.472,28.533z"/>
		</g>
	</g>
	<g>
		<g>
			<path fill="#FFFFFF" d="M28.539,19.319V32.1c0,1.642-1.333,2.975-2.975,2.975H11.892c-1.64,0-2.973-1.333-2.973-2.975V11.888
				c0-0.794,0.308-1.541,0.87-2.104c0.563-0.561,1.308-0.869,2.103-0.869l0,0l13.675,0.002c1.64,0.001,2.973,1.334,2.973,2.973
				c0,0.821,0.666,1.486,1.487,1.486c0.82,0,1.485-0.666,1.485-1.486c0-3.027-2.272-5.532-5.203-5.899V5.947
				C26.309,2.667,23.641,0,20.365,0H5.946C2.668,0,0,2.667,0,5.947v20.214c0,3.278,2.668,5.945,5.946,5.945
				c0.002,3.277,2.669,5.942,5.945,5.942h13.673c3.281,0,5.947-2.667,5.947-5.948V19.319c0-0.822-0.665-1.487-1.485-1.487
				C29.205,17.832,28.539,18.497,28.539,19.319z M7.688,7.683C6.564,8.806,5.946,10.3,5.946,11.888v17.246
				c-1.64,0-2.973-1.333-2.973-2.973V5.947c0-1.639,1.333-2.973,2.973-2.973h14.419c1.638,0,2.971,1.333,2.971,2.971L11.893,5.942
				h-0.001C10.303,5.942,8.811,6.56,7.688,7.683z"/>
		</g>
	</g>
</g>
</svg>
