<?xml version="1.0" encoding="utf-8"?>
<!-- Generator: Adobe Illustrator 16.0.0, SVG Export Plug-In . SVG Version: 6.00 Build 0)  -->
<!DOCTYPE svg PUBLIC "-//W3C//DTD SVG 1.1//EN" "http://www.w3.org/Graphics/SVG/1.1/DTD/svg11.dtd">
<svg version="1.1" id="Capa_1" xmlns="http://www.w3.org/2000/svg" xmlns:xlink="http://www.w3.org/1999/xlink" x="0px" y="0px"
	 width="37.741px" height="31.453px" viewBox="511.897 139.336 37.741 31.453"
	 enable-background="new 511.897 139.336 37.741 31.453" xml:space="preserve">
<g>
	<path fill="#FFFFFF" d="M549.024,154.35l-5.85-13.563c-0.164-0.411-0.463-0.756-0.896-1.033c-0.434-0.278-0.864-0.418-1.29-0.418
		h-20.444c-0.425,0-0.854,0.14-1.289,0.418c-0.434,0.277-0.732,0.622-0.896,1.033l-5.849,13.563c-0.409,1-0.613,2.007-0.613,3.022
		v11.844c0,0.426,0.154,0.794,0.466,1.105c0.313,0.312,0.682,0.468,1.105,0.468h34.599c0.425,0,0.794-0.156,1.104-0.468
		c0.312-0.312,0.467-0.681,0.467-1.105v-11.844C549.639,156.356,549.435,155.35,549.024,154.35z M537.033,156.635l-2.334,4.718
		h-7.863l-2.334-4.718h-7.765c0.016-0.032,0.037-0.099,0.062-0.196c0.024-0.099,0.045-0.164,0.063-0.195l5.209-12.188h17.396
		l5.209,12.188c0.018,0.049,0.037,0.113,0.063,0.195c0.024,0.082,0.045,0.146,0.062,0.196H537.033z"/>
</g>
</svg>
