<?xml version="1.0" encoding="utf-8"?>
<!-- Generator: Adobe Illustrator 16.0.0, SVG Export Plug-In . SVG Version: 6.00 Build 0)  -->
<!DOCTYPE svg PUBLIC "-//W3C//DTD SVG 1.1//EN" "http://www.w3.org/Graphics/SVG/1.1/DTD/svg11.dtd">
<svg version="1.1" id="Capa_1" xmlns="http://www.w3.org/2000/svg" xmlns:xlink="http://www.w3.org/1999/xlink" x="0px" y="0px"
	 width="37.689px" height="36.558px" viewBox="461.951 261.287 37.689 36.558"
	 enable-background="new 461.951 261.287 37.689 36.558" xml:space="preserve">
<g>
	<g>
		<path fill="#FFFFFF" d="M497.704,261.596l-34.719,18.207c-1.429,0.748-1.369,1.845,0.129,2.438l4.433,1.752
			c1.495,0.591,3.764,0.271,5.034-0.725l19.251-15.18c1.266-0.998,1.402-0.852,0.302,0.327l-15.22,16.293
			c-1.104,1.175-0.774,2.611,0.725,3.196l0.521,0.203c1.499,0.581,3.953,1.557,5.444,2.165l4.916,2
			c1.493,0.608,2.716,1.113,2.716,1.122s0.008,0.036,0.016,0.037c0.008,0.003,0.36-1.265,0.782-2.821l7.497-27.548
			C499.951,261.508,499.132,260.848,497.704,261.596z"/>
		<path fill="#FFFFFF" d="M477.074,289.754l-3.401-1.393c-1.491-0.609-2.206,0.105-1.588,1.596c0.001,0,3.158,7.608,3.071,7.877
			c-0.092,0.267,3.027-4.517,3.027-4.517C479.066,291.969,478.564,290.365,477.074,289.754z"/>
	</g>
</g>
</svg>
