<?xml version="1.0" encoding="UTF-8" standalone="no"?>
<!-- Generator: Adobe Illustrator 16.0.0, SVG Export Plug-In . SVG Version: 6.00 Build 0)  -->

<svg
   xmlns:dc="http://purl.org/dc/elements/1.1/"
   xmlns:cc="http://creativecommons.org/ns#"
   xmlns:rdf="http://www.w3.org/1999/02/22-rdf-syntax-ns#"
   xmlns="http://www.w3.org/2000/svg"
   xmlns:sodipodi="http://sodipodi.sourceforge.net/DTD/sodipodi-0.dtd"
   xmlns:inkscape="http://www.inkscape.org/namespaces/inkscape"
   version="1.1"
   id="Capa_1"
   x="0px"
   y="0px"
   width="54"
   height="54"
   viewBox="0 0 54 54"
   enable-background="new 0 0 960 560"
   xml:space="preserve"
   sodipodi:docname="circle_right_arrow.svg"
   inkscape:version="0.92.3 (d244b95, 2018-08-02)"><metadata
   id="metadata3786"><rdf:RDF><cc:Work
       rdf:about=""><dc:format>image/svg+xml</dc:format><dc:type
         rdf:resource="http://purl.org/dc/dcmitype/StillImage" /><dc:title></dc:title></cc:Work></rdf:RDF></metadata><defs
   id="defs3784" /><sodipodi:namedview
   pagecolor="#ffffff"
   bordercolor="#666666"
   borderopacity="1"
   objecttolerance="10"
   gridtolerance="10"
   guidetolerance="10"
   inkscape:pageopacity="0"
   inkscape:pageshadow="2"
   inkscape:window-width="1855"
   inkscape:window-height="1056"
   id="namedview3782"
   showgrid="false"
   inkscape:zoom="9.0610683"
   inkscape:cx="16.284155"
   inkscape:cy="12.241633"
   inkscape:window-x="65"
   inkscape:window-y="24"
   inkscape:window-maximized="1"
   inkscape:current-layer="Capa_1" />
<path
   d="M 27,0 C 12.112679,0 0,12.11163 0,27 0,41.88837 12.112679,54 27,54 41.88837,54 54,41.88837 54,27 54,12.11163 41.88837,0 27,0 Z m 14.005482,27.741164 -19.79727,13.501575 c -0.153272,0.104981 -0.32964,0.156421 -0.507057,0.156421 -0.144874,0 -0.289747,-0.03569 -0.417824,-0.104981 -0.298145,-0.156421 -0.481861,-0.462965 -0.481861,-0.797853 v -27 c 0,-0.333839 0.183716,-0.640383 0.481861,-0.793655 0.293946,-0.156421 0.649831,-0.137525 0.925931,0.05249 l 19.79937,13.497375 c 0.245655,0.169019 0.392628,0.443019 0.392628,0.745363 -10e-4,0.296046 -0.148023,0.578444 -0.395778,0.743264 z"
   id="path3779"
   inkscape:connector-curvature="0"
   style="fill:#ffffff;stroke-width:1.04980743" />
</svg>