<svg xmlns="http://www.w3.org/2000/svg" viewBox="0 0 29.692 38.667">
  <title>lock_icon_new</title>
  <g id="287a119d-cc19-4c40-b3e9-fb1d6177bd24" data-name="Слой 2">
    <g id="2ea452eb-9644-436a-9b6a-4c48b2844d66" data-name="Capa 1">
      <path d="M3.335,11.614v4.038H3.066A3.068,3.068,0,0,0,0,18.717V35.6a3.069,3.069,0,0,0,3.066,3.065H26.627A3.068,3.068,0,0,0,29.692,35.6V18.709a3.068,3.068,0,0,0-3.065-3.065h-.079V11.606a11.607,11.607,0,1,0-23.213.008ZM16.664,27.906a.656.656,0,0,0-.3.617c.008,1.24.008,2.473.008,3.713h0a1.319,1.319,0,0,1-.7,1.248,1.447,1.447,0,0,1-2.165-1.248v-.008c0-1.24,0-2.48.008-3.722a.631.631,0,0,0-.277-.585,2.828,2.828,0,0,1-.932-3.484,2.887,2.887,0,0,1,5.523,1.139A2.74,2.74,0,0,1,16.664,27.906ZM8.416,11.614a6.526,6.526,0,0,1,13.052,0v4.038H8.415V11.614Z" fill="#fff"/>
    </g>
  </g>
</svg>
