<svg xmlns="http://www.w3.org/2000/svg" viewBox="0 0 37 27">
  <title>orangemenu_icon_new</title>
  <g id="3d783789-269b-4aa4-85b4-5f89a57923e5" data-name="Слой 2">
    <g id="95a017a7-03eb-4fe0-a864-162339142ef0" data-name="Capa 1">
      <g>
        <path d="M37,4a1,1,0,0,1-1,1H1A1,1,0,0,1,0,4V1A1,1,0,0,1,1,0H36a1,1,0,0,1,1,1Z" fill="#f15a24"/>
        <path d="M37,15a1,1,0,0,1-1,1H1a1,1,0,0,1-1-1V12a1,1,0,0,1,1-1H36a1,1,0,0,1,1,1Z" fill="#f15a24"/>
        <path d="M37,26a1,1,0,0,1-1,1H1a1,1,0,0,1-1-1V23a1,1,0,0,1,1-1H36a1,1,0,0,1,1,1Z" fill="#f15a24"/>
      </g>
    </g>
  </g>
</svg>
