<?xml version="1.0" encoding="utf-8"?>
<!-- Generator: Adobe Illustrator 16.0.0, SVG Export Plug-In . SVG Version: 6.00 Build 0)  -->
<!DOCTYPE svg PUBLIC "-//W3C//DTD SVG 1.1//EN" "http://www.w3.org/Graphics/SVG/1.1/DTD/svg11.dtd">
<svg version="1.1" id="Capa_1" xmlns="http://www.w3.org/2000/svg" xmlns:xlink="http://www.w3.org/1999/xlink" x="0px" y="0px"
	 width="960px" height="560px" viewBox="0 0 960 560" enable-background="new 0 0 960 560" xml:space="preserve">
<g>
	<path fill="#F15A24" d="M201.851,369.728h-38.92l23.516-166.625c0.81-4.459-2.433-8.109-6.893-8.109s-8.918,3.65-9.73,8.109
		l-2.029,12.568h-12.161l2.026-12.568c3.243-18.652,19.866-33.649,38.515-33.649c15.407,0,23.921,8.512,28.38,20.673
		c13.785-16.621,27.973-24.729,42.975-24.729c29.999,0,49.46,34.865,43.784,77.03c-6.083,42.567-35.677,77.433-65.271,77.433
		c-14.19,0-25.946-8.107-34.056-21.485L201.851,369.728z M220.096,242.428c-4.055,28.784,3.243,51.893,16.621,51.893
		s27.57-23.108,31.623-51.488c4.055-28.784-3.65-52.298-17.028-52.298C238.34,190.534,223.743,214.048,220.096,242.428z"/>
	<path fill="#F15A24" d="M415.884,291.888c-8.919,11.759-21.892,27.973-42.567,27.973c-21.082,0-35.677-17.025-32.432-38.108
		l10.944-78.649c0.81-4.459-2.433-8.109-6.893-8.109c-4.459,0-8.918,3.65-9.728,8.109l-2.028,12.568h-12.164l2.029-12.568
		c3.243-18.652,19.866-33.649,38.513-33.649c18.651,0,31.622,14.997,29.191,33.649l-10.947,76.624
		c-0.81,6.893,3.65,11.756,10.136,11.756c6.488,0,12.568-4.863,24.325-20.675l9.323-12.569l12.164-86.758h38.92l-16.217,114.326
		c-0.812,4.459,2.432,8.106,7.298,8.106c4.052,0,8.515-3.647,8.919-8.106l2.025-12.973h12.568l-2.025,12.973
		c-3.242,18.649-20.271,34.054-38.516,34.054c-18.244,0-31.622-14.595-29.596-32.433L415.884,291.888z"/>
	<path fill="#F15A24" d="M561.793,192.968c8.921-12.569,21.892-27.57,42.569-27.57c20.676,0,35.675,16.623,32.839,37.706
		l-12.163,82.704c-0.405,4.459,2.433,8.106,7.704,8.106c4.052,0,8.106-3.647,8.919-8.106l2.026-12.973h12.163l-2.028,12.973
		c-2.838,18.649-19.863,34.054-38.516,34.054c-18.646,0-31.622-15.404-29.188-34.054l11.759-80.678
		c0.81-6.485-3.65-11.756-10.138-11.756c-6.488,0-12.161,5.271-24.325,20.675l-10.136,13.378l-11.757,87.166h-38.92l15.407-111.489
		c0.812-4.459-2.434-8.109-6.893-8.109c-4.46,0-8.919,3.65-9.73,8.109l-2.026,12.568h-12.161l2.026-12.568
		c3.242-18.652,19.863-33.649,38.515-33.649c17.43,0,29.999,12.971,29.594,29.594L561.793,192.968z"/>
	<path fill="#F15A24" d="M686.999,298.375c-0.08,0-0.155-0.011-0.234-0.012c-0.057,0.002-0.117,0.012-0.173,0.012H686.999z"/>
	<path fill="#F15A24" d="M869.007,165.397c-25.585,0-50.283,18.786-63.869,45.603h-27.367c-0.452-3.682-1.366-7.262-2.797-10.737
		c6.081-4.862,12.568-12.279,14.188-23.632L792.406,153H779.84l-1.216,11.824c-0.407,4.461-4.867,8.176-9.326,8.176
		c0,0-38.515,0-40.541,0c-30.406,0-58.786,21.943-62.436,49.106c-2.431,15.812,4.459,30.836,17.027,39.35
		c-6.893,3.243-12.161,10.148-12.971,17.85c-1.611,10.463,5.966,18.925,16.387,19.052c4.453-0.129,10.911-5.256,21.722-5.256
		c18.646,0,29.998,12.569,27.973,28.381c-2.026,15.811-19.462,28.381-38.92,28.381c-18.242,0-27.161-11.759-31.218-22.299
		l-17.838,9.323c2.434,13.381,20.678,34.056,54.731,34.056c34.053,0,66.083-27.973,70.949-62.028
		c2.836-22.296-6.487-39.324-23.111-48.65c5.938-3.792,11.119-8.266,15.335-13.265h28.327c-4.023,40.268,18.702,72.86,52.805,72.86
		c34.865,0,65.271-34.865,71.354-77.433C924.55,199.86,903.872,165.397,869.007,165.397z M899.926,222.039
		c-2.434,16.621-16.623,30.811-31.623,30.811c-10.793,0-19.188-6.966-22.419-16.85H753.36c-5.94,9.946-16.082,16.968-26.63,16.968
		c-15.409,0-25.946-14.19-23.516-30.811c2.434-17.028,17.027-30.813,32.435-30.813c13.142,0,22.549,10.583,23.042,24.656h87.503
		c4.586-14.132,17.491-24.774,31.027-24.774C892.221,191.226,902.356,205.011,899.926,222.039z"/>
</g>
</svg>
